<svg width="24" height="24" fill="none" xmlns="http://www.w3.org/2000/svg"><path d="M23.497 6.468a2.786 2.786 0 00-.765-1.27 3.05 3.05 0 00-1.338-.742c-1.878-.495-9.401-.495-9.401-.495a76.612 76.612 0 00-9.389.47c-.501.14-.961.4-1.338.76-.37.356-.637.795-.777 1.276a28.99 28.99 0 00-.488 5.493c-.012 1.84.15 3.68.488 5.493.137.48.403.916.774 1.27.371.352.833.607 1.341.742 1.903.494 9.389.494 9.389.494 3.14.036 6.28-.121 9.4-.47.502-.13.963-.385 1.339-.742a2.78 2.78 0 00.765-1.27c.345-1.81.512-3.65.5-5.494.026-1.851-.141-3.7-.5-5.516zM9.601 15.384V8.538l6.26 3.423-6.26 3.423z" fill="#fff" fill-opacity=".24"/></svg>