<svg width="158" height="22" fill="none" xmlns="http://www.w3.org/2000/svg"><path d="M9.904 6.454l9.215 13.725a4.106 4.106 0 003.41 1.814 4.09 4.09 0 003.411-1.814l9.215-13.725A4.16 4.16 0 0034.042.709 4.08 4.08 0 0031.732 0h-18.43a4.09 4.09 0 00-2.285.71 4.16 4.16 0 00-1.113 5.744z" fill="url(#paint0_linear_92_529)"/><path d="M25.964 15.552L16.749 1.827A4.139 4.139 0 0013.326 0a4.09 4.09 0 00-3.41 1.815L.7 15.54a4.16 4.16 0 001.113 5.744 4.08 4.08 0 002.31.71h18.43a4.08 4.08 0 002.309-.71c1.867-1.262 2.37-3.846 1.1-5.732z" fill="url(#paint1_linear_92_529)"/><path d="M25.964 15.552L16.75 1.827A4.125 4.125 0 0011.017.709a4.16 4.16 0 00-1.113 5.745l9.215 13.725c1.268 1.886 3.841 2.391 5.72 1.117a4.153 4.153 0 001.125-5.744zm21.29-12.055l-.012-.012c-.012-.024-.036-.036-.048-.06-.036-.048-.06-.084-.108-.12-.036-.036-.084-.072-.12-.108-.023-.012-.035-.036-.06-.048-.06-.036-.119-.072-.179-.096-.012 0-.024-.012-.036-.024-.06-.024-.12-.036-.167-.048a.919.919 0 00-.18-.025c-.036 0-.072-.012-.107-.012-.036 0-.072.012-.108.012a.92.92 0 00-.18.025c-.06.012-.12.024-.167.048-.012 0-.024.012-.036.024-.06.024-.12.06-.18.096-.024.012-.035.036-.047.048-.048.036-.084.06-.12.108-.036.036-.072.084-.108.12-.012.024-.036.036-.048.06l-.012.012-9.155 13.665a1.204 1.204 0 00.994 1.875c.383 0 .766-.192.993-.529l2.334-3.485h11.68l2.333 3.485c.228.349.61.529.994.529.227 0 .466-.072.67-.204.55-.373.694-1.118.323-1.671L47.254 3.497zm-5.23 9.122l4.225-6.297 4.224 6.297h-8.449zm23.827-3.906c0 .661-.538 1.202-1.197 1.202a3.347 3.347 0 00-3.338 3.353v4.555c0 .661-.539 1.202-1.197 1.202s-1.197-.541-1.197-1.202v-4.76c0-.071.012-.131.024-.204.215-2.992 2.693-5.36 5.72-5.36a1.219 1.219 0 011.185 1.214zM85.43 4.278a1.315 1.315 0 11-2.633 0 1.315 1.315 0 112.633 0zM74.133 7.26a5.933 5.933 0 00-3.59 1.214V4.158c0-.66-.54-1.202-1.197-1.202-.659 0-1.197.541-1.197 1.202v9.122c0 3.317 2.692 6.021 5.995 6.021s5.996-2.704 5.996-6.02c0-3.318-2.692-6.022-6.007-6.022zm0 9.627c-1.975 0-3.59-1.623-3.59-3.606 0-1.983 1.615-3.605 3.59-3.605 1.986 0 3.59 1.622 3.59 3.605a3.593 3.593 0 01-3.59 3.606zM85.31 8.713v9.122c0 .661-.538 1.202-1.197 1.202a1.202 1.202 0 01-1.196-1.202V8.713c0-.66.538-1.202 1.196-1.202.659 0 1.197.541 1.197 1.202zm20.19-4.555v13.677c0 .024-.012.06-.012.084 0 .036 0 .084-.012.12a.428.428 0 00-.024.12l-.036.109c-.012.036-.036.072-.06.12-.012.036-.035.06-.047.096a.66.66 0 01-.084.108c-.012.024-.024.048-.048.06l-.012.012c-.036.036-.084.072-.132.108-.024.013-.036.037-.06.049a.736.736 0 01-.167.096c-.012.012-.024.012-.036.024-.144.06-.299.096-.467.096a1.47 1.47 0 01-.227-.024.222.222 0 01-.084-.024.414.414 0 01-.131-.048.357.357 0 01-.096-.048c-.036-.024-.072-.036-.108-.06-.036-.024-.06-.048-.096-.073-.024-.024-.048-.036-.071-.048L90.731 6.91v10.925c0 .661-.538 1.202-1.196 1.202a1.203 1.203 0 01-1.197-1.202V4.158c0-.024.012-.06.012-.084 0-.036 0-.084.012-.12a.431.431 0 00.024-.12l.036-.108c.012-.036.035-.072.06-.12.011-.037.035-.06.047-.097.024-.036.048-.072.084-.108.012-.024.024-.048.048-.06l.012-.012c.036-.036.072-.06.108-.096.024-.024.047-.048.071-.06.036-.024.072-.048.12-.072.024-.012.06-.036.084-.048.036-.012.084-.024.12-.036.035-.012.071-.024.095-.036.036-.013.072-.013.12-.013.036 0 .084-.012.12-.012h.024c.023 0 .06.012.083.012.036 0 .084 0 .12.013.036.012.072.024.12.024l.107.036c.036.012.072.036.108.048.036.012.06.036.096.048.036.024.072.048.108.084.023.012.047.024.06.048l12.757 11.814V4.158a1.202 1.202 0 012.405 0zm46.505 3.101c-3.303 0-5.995 2.704-5.995 6.021 0 3.317 2.692 6.021 5.995 6.021S158 16.597 158 13.281c0-3.318-2.693-6.022-5.996-6.022zm0 9.627c-1.986 0-3.59-1.623-3.59-3.606 0-1.983 1.616-3.605 3.59-3.605 1.975 0 3.59 1.622 3.59 3.605 0 1.983-1.603 3.606-3.59 3.606zm-17.209-8.173v4.555c0 3.317-2.692 6.021-5.995 6.021s-5.996-2.704-5.996-6.02V8.712c0-.66.538-1.202 1.197-1.202.658 0 1.196.541 1.196 1.202v4.555c0 1.983 1.616 3.606 3.591 3.606 1.974 0 3.59-1.623 3.59-3.606V8.713c0-.66.538-1.202 1.197-1.202.682 0 1.22.541 1.22 1.202zm9.718 0c0 .661-.539 1.202-1.197 1.202a3.347 3.347 0 00-3.339 3.353v4.555c0 .661-.538 1.202-1.197 1.202a1.202 1.202 0 01-1.196-1.202v-4.555c0-3.185 2.573-5.769 5.744-5.769a1.22 1.22 0 011.185 1.214zM114.14 7.26c-3.232 0-5.865 2.644-5.865 5.889 0 3.39 2.753 6.153 6.128 6.153a6.06 6.06 0 004.332-1.802 1.236 1.236 0 000-1.743 1.224 1.224 0 00-1.735 0 3.659 3.659 0 01-1.975 1.021 3.591 3.591 0 01-4.296-2.392h8.054c.682 0 1.232-.552 1.232-1.237 0-3.245-2.632-5.889-5.875-5.889zm-3.411 4.915a3.591 3.591 0 016.845 0h-6.845z" fill="#fff"/><defs><linearGradient id="paint0_linear_92_529" x1="34.83" y1="1.201" x2="13.822" y2="13.279" gradientUnits="userSpaceOnUse"><stop stop-color="#ED4FBC"/><stop offset=".5" stop-color="#8959FF"/><stop offset="1" stop-color="#2D57E6"/></linearGradient><linearGradient id="paint1_linear_92_529" x1="22.006" y1="8.644" x2=".998" y2="20.721" gradientUnits="userSpaceOnUse"><stop stop-color="#fff"/><stop offset="1" stop-color="#00DAFF"/></linearGradient></defs></svg>